<svg xmlns="http://www.w3.org/2000/svg" xmlns:xlink="http://www.w3.org/1999/xlink" x="0" y="0" width="661.1428833007812" height="301.14288330078125" style="
        width:661.1428833007812px;
        height:301.14288330078125px;
        background: transparent;
        fill: none;
">
        <svg xmlns="http://www.w3.org/2000/svg"><g><defs><pattern id=".17861601577880304" width="10" height="10" patternUnits="userSpaceOnUse"><path d="M 10 0 L 0 0 0 10" fill="none" stroke="lightgray" stroke-width="0.5"/></pattern></defs><rect width="100%" height="100%" fill="url(#.17861601577880304)" stroke="lightgray" stroke-width="0.5"/></g></svg>
        
        <svg xmlns="http://www.w3.org/2000/svg" class="role-diagram-draw-area"><g class="shapes-region" style="stroke: black; fill: none;"><g class="composite-shape"><path class="real" d=" M243.85,34.05 C248.17,34.28 250.62,37.69 249.31,41.66 L242.21,63.24 C240.91,67.21 236.34,70.25 232.01,70.02 L206.07,68.64 C201.75,68.41 199.3,65 200.6,61.03 L207.7,39.45 C209.01,35.48 213.58,32.44 217.91,32.67 Z" style="stroke-width: 1px; stroke: rgb(0, 0, 0); fill: rgb(255, 255, 255); fill-opacity: 1;"/></g><g class="composite-shape"><path class="real" d=" M236.78,52.97 C241.11,53.2 243.56,56.6 242.25,60.58 L235.15,82.16 C233.84,86.13 229.27,89.17 224.95,88.94 L199.01,87.56 C194.68,87.33 192.23,83.92 193.54,79.95 L200.64,58.37 C201.95,54.39 206.51,51.36 210.84,51.59 Z" style="stroke-width: 1px; stroke: rgb(0, 0, 0); fill: rgb(255, 255, 255); fill-opacity: 1;"/></g><g class="composite-shape"><path class="real" d=" M231.68,68.1 C236,68.33 238.45,71.74 237.15,75.71 L230.05,97.29 C228.74,101.26 224.17,104.3 219.84,104.07 L193.9,102.69 C189.58,102.46 187.13,99.05 188.44,95.08 L195.54,73.5 C196.84,69.53 201.41,66.49 205.74,66.72 Z" style="stroke-width: 1px; stroke: rgb(0, 0, 0); fill: rgb(255, 255, 255); fill-opacity: 1;"/></g><g class="composite-shape"><path class="real" d=" M226.46,83.99 C230.78,84.22 233.23,87.63 231.92,91.6 L224.82,113.18 C223.52,117.15 218.95,120.19 214.62,119.96 L188.68,118.58 C184.36,118.35 181.91,114.94 183.21,110.97 L190.31,89.39 C191.62,85.42 196.19,82.38 200.52,82.61 Z" style="stroke-width: 1px; stroke: rgb(0, 0, 0); fill: rgb(255, 255, 255); fill-opacity: 1;"/></g><g class="composite-shape"><path class="real" d=" M221.35,99.12 C225.68,99.35 228.13,102.76 226.82,106.73 L219.72,128.31 C218.41,132.29 213.85,135.32 209.52,135.09 L183.58,133.71 C179.25,133.48 176.8,130.08 178.11,126.1 L185.21,104.52 C186.52,100.55 191.09,97.51 195.41,97.74 Z" style="stroke-width: 1px; stroke: rgb(0, 0, 0); fill: rgb(255, 255, 255); fill-opacity: 1;"/></g><g class="composite-shape"><path class="real" d=" M214.76,115.01 C219.09,115.24 221.53,118.65 220.23,122.62 L213.13,144.2 C211.82,148.18 207.25,151.21 202.92,150.98 L176.99,149.6 C172.66,149.37 170.21,145.97 171.52,141.99 L178.62,120.41 C179.92,116.44 184.49,113.4 188.82,113.63 Z" style="stroke-width: 1px; stroke: rgb(0, 0, 0); fill: rgb(255, 255, 255); fill-opacity: 1;"/></g><g class="composite-shape"><path class="real" d=" M207.69,133.93 C212.02,134.16 214.47,137.56 213.16,141.54 L206.06,163.12 C204.75,167.09 200.19,170.13 195.86,169.9 L169.92,168.52 C165.59,168.29 163.14,164.88 164.45,160.91 L171.55,139.33 C172.86,135.35 177.43,132.32 181.75,132.55 Z" style="stroke-width: 1px; stroke: rgb(0, 0, 0); fill: rgb(255, 255, 255); fill-opacity: 1;"/></g><g class="composite-shape"><path class="real" d=" M202.59,149.06 C206.92,149.29 209.37,152.7 208.06,156.67 L200.96,178.25 C199.65,182.23 195.08,185.26 190.76,185.03 L164.82,183.65 C160.49,183.42 158.04,180.02 159.35,176.04 L166.45,154.46 C167.76,150.49 172.32,147.45 176.65,147.68 Z" style="stroke-width: 1px; stroke: rgb(0, 0, 0); fill: rgb(255, 255, 255); fill-opacity: 1;"/></g><g class="composite-shape"><path class="real" d=" M197.37,164.95 C201.7,165.18 204.14,168.59 202.84,172.56 L195.74,194.14 C194.43,198.12 189.86,201.15 185.53,200.92 L159.6,199.54 C155.27,199.31 152.82,195.91 154.13,191.93 L161.23,170.35 C162.53,166.38 167.1,163.34 171.43,163.57 Z" style="stroke-width: 1px; stroke: rgb(0, 0, 0); fill: rgb(255, 255, 255); fill-opacity: 1;"/></g><g class="composite-shape"><path class="real" d=" M192.27,180.08 C196.59,180.31 199.04,183.72 197.73,187.69 L190.63,209.28 C189.33,213.25 184.76,216.28 180.43,216.05 L154.49,214.68 C150.17,214.45 147.72,211.04 149.02,207.07 L156.12,185.48 C157.43,181.51 162,178.48 166.33,178.71 Z" style="stroke-width: 1px; stroke: rgb(0, 0, 0); fill: rgb(255, 255, 255); fill-opacity: 1;"/></g><g class="composite-shape"><path class="real" d=" M185.32,198.24 C189.64,198.47 192.09,201.88 190.79,205.85 L183.69,227.43 C182.38,231.41 177.81,234.44 173.48,234.21 L147.55,232.84 C143.22,232.61 140.77,229.2 142.08,225.22 L149.18,203.64 C150.48,199.67 155.05,196.64 159.38,196.86 Z" style="stroke-width: 1px; stroke: rgb(0, 0, 0); fill: rgb(255, 255, 255); fill-opacity: 1;"/></g><g class="composite-shape"><path class="real" d=" M180.21,213.38 C184.54,213.61 186.99,217.01 185.68,220.99 L178.58,242.57 C177.28,246.54 172.71,249.58 168.38,249.35 L142.44,247.97 C138.11,247.74 135.67,244.33 136.97,240.36 L144.07,218.78 C145.38,214.8 149.95,211.77 154.28,212 Z" style="stroke-width: 1px; stroke: rgb(0, 0, 0); fill: rgb(255, 255, 255); fill-opacity: 1;"/></g><g class="composite-shape"><path class="real" d=" M174.99,229.27 C179.32,229.5 181.77,232.9 180.46,236.88 L173.36,258.46 C172.05,262.43 167.49,265.47 163.16,265.24 L137.22,263.86 C132.89,263.63 130.44,260.22 131.75,256.25 L138.85,234.67 C140.16,230.69 144.73,227.66 149.05,227.89 Z" style="stroke-width: 1px; stroke: rgb(0, 0, 0); fill: rgb(255, 255, 255); fill-opacity: 1;"/></g><g class="composite-shape"><path class="real" d=" M302.63,38.92 C306.96,39.15 309.41,42.56 308.1,46.53 L301,68.12 C299.69,72.09 295.13,75.12 290.8,74.89 L264.86,73.52 C260.53,73.29 258.08,69.88 259.39,65.91 L266.49,44.32 C267.8,40.35 272.36,37.32 276.69,37.55 Z" style="stroke-width: 1px; stroke: rgb(0, 0, 0); fill: rgb(255, 255, 255); fill-opacity: 1;"/></g><g class="composite-shape"><path class="real" d=" M295.57,57.84 C299.89,58.07 302.34,61.48 301.03,65.45 L293.93,87.03 C292.63,91 288.06,94.04 283.73,93.81 L257.79,92.43 C253.47,92.2 251.02,88.79 252.32,84.82 L259.42,63.24 C260.73,59.27 265.3,56.23 269.63,56.46 Z" style="stroke-width: 1px; stroke: rgb(0, 0, 0); fill: rgb(255, 255, 255); fill-opacity: 1;"/></g><g class="composite-shape"><path class="real" d=" M290.46,72.97 C294.79,73.2 297.24,76.61 295.93,80.58 L288.83,102.16 C287.52,106.14 282.96,109.17 278.63,108.94 L252.69,107.57 C248.36,107.34 245.91,103.93 247.22,99.95 L254.32,78.37 C255.63,74.4 260.2,71.37 264.52,71.59 Z" style="stroke-width: 1px; stroke: rgb(0, 0, 0); fill: rgb(255, 255, 255); fill-opacity: 1;"/></g><g class="composite-shape"><path class="real" d=" M285.24,88.86 C289.57,89.09 292.02,92.5 290.71,96.47 L283.61,118.05 C282.3,122.03 277.74,125.06 273.41,124.83 L247.47,123.45 C243.14,123.22 240.69,119.82 242,115.84 L249.1,94.26 C250.41,90.29 254.98,87.25 259.3,87.48 Z" style="stroke-width: 1px; stroke: rgb(0, 0, 0); fill: rgb(255, 255, 255); fill-opacity: 1;"/></g><g class="composite-shape"><path class="real" d=" M280.14,104 C284.47,104.22 286.91,107.63 285.61,111.61 L278.51,133.19 C277.2,137.16 272.63,140.2 268.3,139.97 L242.37,138.59 C238.04,138.36 235.59,134.95 236.9,130.98 L244,109.4 C245.3,105.42 249.87,102.39 254.2,102.62 Z" style="stroke-width: 1px; stroke: rgb(0, 0, 0); fill: rgb(255, 255, 255); fill-opacity: 1;"/></g><g class="composite-shape"><path class="real" d=" M273.54,119.88 C277.87,120.11 280.32,123.52 279.01,127.5 L271.91,149.08 C270.61,153.05 266.04,156.08 261.71,155.85 L235.77,154.48 C231.44,154.25 229,150.84 230.3,146.87 L237.4,125.29 C238.71,121.31 243.28,118.28 247.61,118.51 Z" style="stroke-width: 1px; stroke: rgb(0, 0, 0); fill: rgb(255, 255, 255); fill-opacity: 1;"/></g><g class="composite-shape"><path class="real" d=" M266.48,138.8 C270.81,139.03 273.25,142.44 271.95,146.41 L264.85,167.99 C263.54,171.97 258.97,175 254.65,174.77 L228.71,173.39 C224.38,173.16 221.93,169.76 223.24,165.78 L230.34,144.2 C231.64,140.23 236.21,137.19 240.54,137.42 Z" style="stroke-width: 1px; stroke: rgb(0, 0, 0); fill: rgb(255, 255, 255); fill-opacity: 1;"/></g><g class="composite-shape"><path class="real" d=" M261.38,153.93 C265.7,154.16 268.15,157.57 266.84,161.54 L259.74,183.13 C258.44,187.1 253.87,190.13 249.54,189.9 L223.6,188.53 C219.28,188.3 216.83,184.89 218.13,180.92 L225.23,159.33 C226.54,155.36 231.11,152.33 235.44,152.56 Z" style="stroke-width: 1px; stroke: rgb(0, 0, 0); fill: rgb(255, 255, 255); fill-opacity: 1;"/></g><g class="composite-shape"><path class="real" d=" M256.15,169.82 C260.48,170.05 262.93,173.46 261.62,177.43 L254.52,199.02 C253.22,202.99 248.65,206.02 244.32,205.79 L218.38,204.42 C214.05,204.19 211.61,200.78 212.91,196.81 L220.01,175.22 C221.32,171.25 225.89,168.22 230.22,168.45 Z" style="stroke-width: 1px; stroke: rgb(0, 0, 0); fill: rgb(255, 255, 255); fill-opacity: 1;"/></g><g class="composite-shape"><path class="real" d=" M251.05,184.96 C255.38,185.19 257.83,188.59 256.52,192.57 L249.42,214.15 C248.11,218.12 243.55,221.16 239.22,220.93 L213.28,219.55 C208.95,219.32 206.5,215.91 207.81,211.94 L214.91,190.36 C216.22,186.38 220.78,183.35 225.11,183.58 Z" style="stroke-width: 1px; stroke: rgb(0, 0, 0); fill: rgb(255, 255, 255); fill-opacity: 1;"/></g><g class="composite-shape"><path class="real" d=" M244.1,203.12 C248.43,203.35 250.88,206.75 249.57,210.73 L242.47,232.31 C241.17,236.28 236.6,239.32 232.27,239.09 L206.33,237.71 C202,237.48 199.55,234.07 200.86,230.1 L207.96,208.52 C209.27,204.54 213.84,201.51 218.16,201.74 Z" style="stroke-width: 1px; stroke: rgb(0, 0, 0); fill: rgb(255, 255, 255); fill-opacity: 1;"/></g><g class="composite-shape"><path class="real" d=" M239,218.25 C243.33,218.48 245.78,221.89 244.47,225.86 L237.37,247.44 C236.06,251.41 231.49,254.45 227.17,254.22 L201.23,252.84 C196.9,252.61 194.45,249.21 195.76,245.23 L202.86,223.65 C204.17,219.68 208.73,216.64 213.06,216.87 Z" style="stroke-width: 1px; stroke: rgb(0, 0, 0); fill: rgb(255, 255, 255); fill-opacity: 1;"/></g><g class="composite-shape"><path class="real" d=" M233.78,234.14 C238.11,234.37 240.56,237.78 239.25,241.75 L232.15,263.33 C230.84,267.3 226.27,270.34 221.95,270.11 L196.01,268.73 C191.68,268.5 189.23,265.09 190.54,261.12 L197.64,239.54 C198.94,235.57 203.51,232.53 207.84,232.76 Z" style="stroke-width: 1px; stroke: rgb(0, 0, 0); fill: rgb(255, 255, 255); fill-opacity: 1;"/></g><g class="composite-shape"><path class="real" d=" M359.58,41.66 C363.91,41.89 366.36,45.3 365.05,49.27 L357.95,70.85 C356.65,74.83 352.08,77.86 347.75,77.63 L321.81,76.25 C317.49,76.02 315.04,72.62 316.34,68.64 L323.44,47.06 C324.75,43.09 329.32,40.05 333.65,40.28 Z" style="stroke-width: 1px; stroke: rgb(0, 0, 0); fill: rgb(255, 255, 255); fill-opacity: 1;"/></g><g class="composite-shape"><path class="real" d=" M352.52,60.58 C356.85,60.81 359.3,64.21 357.99,68.19 L350.89,89.77 C349.58,93.74 345.01,96.78 340.69,96.55 L314.75,95.17 C310.42,94.94 307.97,91.53 309.28,87.56 L316.38,65.98 C317.69,62 322.25,58.97 326.58,59.2 Z" style="stroke-width: 1px; stroke: rgb(0, 0, 0); fill: rgb(255, 255, 255); fill-opacity: 1;"/></g><g class="composite-shape"><path class="real" d=" M347.42,75.71 C351.74,75.94 354.19,79.35 352.89,83.32 L345.79,104.9 C344.48,108.87 339.91,111.91 335.58,111.68 L309.64,110.3 C305.32,110.07 302.87,106.66 304.17,102.69 L311.27,81.11 C312.58,77.14 317.15,74.1 321.48,74.33 Z" style="stroke-width: 1px; stroke: rgb(0, 0, 0); fill: rgb(255, 255, 255); fill-opacity: 1;"/></g><g class="composite-shape"><path class="real" d=" M342.2,91.6 C346.52,91.83 348.97,95.24 347.66,99.21 L340.56,120.79 C339.26,124.76 334.69,127.8 330.36,127.57 L304.42,126.19 C300.1,125.96 297.65,122.55 298.95,118.58 L306.05,97 C307.36,93.03 311.93,89.99 316.26,90.22 Z" style="stroke-width: 1px; stroke: rgb(0, 0, 0); fill: rgb(255, 255, 255); fill-opacity: 1;"/></g><g class="composite-shape"><path class="real" d=" M337.09,106.73 C341.42,106.96 343.87,110.37 342.56,114.34 L335.46,135.92 C334.15,139.9 329.59,142.93 325.26,142.7 L299.32,141.32 C294.99,141.09 292.54,137.69 293.85,133.71 L300.95,112.13 C302.26,108.16 306.83,105.12 311.15,105.35 Z" style="stroke-width: 1px; stroke: rgb(0, 0, 0); fill: rgb(255, 255, 255); fill-opacity: 1;"/></g><g class="composite-shape"><path class="real" d=" M330.5,122.62 C334.83,122.85 337.27,126.26 335.97,130.23 L328.87,151.81 C327.56,155.79 322.99,158.82 318.66,158.59 L292.73,157.21 C288.4,156.98 285.95,153.58 287.26,149.6 L294.36,128.02 C295.66,124.05 300.23,121.01 304.56,121.24 Z" style="stroke-width: 1px; stroke: rgb(0, 0, 0); fill: rgb(255, 255, 255); fill-opacity: 1;"/></g><g class="composite-shape"><path class="real" d=" M323.43,141.54 C327.76,141.77 330.21,145.17 328.9,149.15 L321.8,170.73 C320.49,174.7 315.93,177.74 311.6,177.51 L285.66,176.13 C281.33,175.9 278.88,172.49 280.19,168.52 L287.29,146.94 C288.6,142.96 293.17,139.93 297.49,140.16 Z" style="stroke-width: 1px; stroke: rgb(0, 0, 0); fill: rgb(255, 255, 255); fill-opacity: 1;"/></g><g class="composite-shape"><path class="real" d=" M318.33,156.67 C322.66,156.9 325.11,160.31 323.8,164.28 L316.7,185.86 C315.39,189.84 310.82,192.87 306.5,192.64 L280.56,191.26 C276.23,191.03 273.78,187.63 275.09,183.65 L282.19,162.07 C283.49,158.1 288.06,155.06 292.39,155.29 Z" style="stroke-width: 1px; stroke: rgb(0, 0, 0); fill: rgb(255, 255, 255); fill-opacity: 1;"/></g><g class="composite-shape"><path class="real" d=" M313.11,172.56 C317.44,172.79 319.88,176.2 318.58,180.17 L311.48,201.75 C310.17,205.73 305.6,208.76 301.27,208.53 L275.34,207.15 C271.01,206.92 268.56,203.52 269.87,199.54 L276.97,177.96 C278.27,173.99 282.84,170.95 287.17,171.18 Z" style="stroke-width: 1px; stroke: rgb(0, 0, 0); fill: rgb(255, 255, 255); fill-opacity: 1;"/></g><g class="composite-shape"><path class="real" d=" M308,187.69 C312.33,187.92 314.78,191.33 313.47,195.3 L306.37,216.89 C305.07,220.86 300.5,223.89 296.17,223.66 L270.23,222.29 C265.9,222.06 263.46,218.65 264.76,214.68 L271.86,193.09 C273.17,189.12 277.74,186.09 282.07,186.32 Z" style="stroke-width: 1px; stroke: rgb(0, 0, 0); fill: rgb(255, 255, 255); fill-opacity: 1;"/></g><g class="composite-shape"><path class="real" d=" M301.06,205.85 C305.38,206.08 307.83,209.49 306.53,213.46 L299.43,235.05 C298.12,239.02 293.55,242.05 289.22,241.82 L263.28,240.45 C258.96,240.22 256.51,236.81 257.82,232.84 L264.92,211.25 C266.22,207.28 270.79,204.25 275.12,204.48 Z" style="stroke-width: 1px; stroke: rgb(0, 0, 0); fill: rgb(255, 255, 255); fill-opacity: 1;"/></g><g class="composite-shape"><path class="real" d=" M295.95,220.99 C300.28,221.22 302.73,224.62 301.42,228.6 L294.32,250.18 C293.02,254.15 288.45,257.19 284.12,256.96 L258.18,255.58 C253.85,255.35 251.41,251.94 252.71,247.97 L259.81,226.39 C261.12,222.41 265.69,219.38 270.01,219.61 Z" style="stroke-width: 1px; stroke: rgb(0, 0, 0); fill: rgb(255, 255, 255); fill-opacity: 1;"/></g><g class="composite-shape"><path class="real" d=" M290.73,236.88 C295.06,237.11 297.51,240.51 296.2,244.49 L289.1,266.07 C287.79,270.04 283.23,273.08 278.9,272.85 L252.96,271.47 C248.63,271.24 246.18,267.83 247.49,263.86 L254.59,242.28 C255.9,238.3 260.47,235.27 264.79,235.5 Z" style="stroke-width: 1px; stroke: rgb(0, 0, 0); fill: rgb(255, 255, 255); fill-opacity: 1;"/></g><g class="composite-shape"><path class="real" d=" M417.62,44.4 C421.95,44.63 424.4,48.03 423.09,52.01 L415.99,73.59 C414.68,77.56 410.12,80.6 405.79,80.37 L379.85,78.99 C375.52,78.76 373.07,75.35 374.38,71.38 L381.48,49.8 C382.79,45.82 387.35,42.79 391.68,43.02 Z" style="stroke-width: 1px; stroke: rgb(0, 0, 0); fill: rgb(255, 255, 255); fill-opacity: 1;"/></g><g class="composite-shape"><path class="real" d=" M410.56,63.31 C414.88,63.54 417.33,66.95 416.02,70.92 L408.92,92.5 C407.62,96.48 403.05,99.51 398.72,99.28 L372.78,97.9 C368.46,97.68 366.01,94.27 367.31,90.29 L374.41,68.71 C375.72,64.74 380.29,61.71 384.62,61.93 Z" style="stroke-width: 1px; stroke: rgb(0, 0, 0); fill: rgb(255, 255, 255); fill-opacity: 1;"/></g><g class="composite-shape"><path class="real" d=" M405.45,78.45 C409.78,78.68 412.23,82.08 410.92,86.06 L403.82,107.64 C402.51,111.61 397.95,114.65 393.62,114.42 L367.68,113.04 C363.35,112.81 360.9,109.4 362.21,105.43 L369.31,83.85 C370.62,79.87 375.19,76.84 379.51,77.07 Z" style="stroke-width: 1px; stroke: rgb(0, 0, 0); fill: rgb(255, 255, 255); fill-opacity: 1;"/></g><g class="composite-shape"><path class="real" d=" M400.23,94.34 C404.56,94.56 407.01,97.97 405.7,101.95 L398.6,123.53 C397.29,127.5 392.73,130.54 388.4,130.31 L362.46,128.93 C358.13,128.7 355.68,125.29 356.99,121.32 L364.09,99.74 C365.4,95.76 369.96,92.73 374.29,92.96 Z" style="stroke-width: 1px; stroke: rgb(0, 0, 0); fill: rgb(255, 255, 255); fill-opacity: 1;"/></g><g class="composite-shape"><path class="real" d=" M395.13,109.47 C399.46,109.7 401.9,113.11 400.6,117.08 L393.5,138.66 C392.19,142.63 387.62,145.67 383.29,145.44 L357.36,144.06 C353.03,143.83 350.58,140.42 351.89,136.45 L358.99,114.87 C360.29,110.9 364.86,107.86 369.19,108.09 Z" style="stroke-width: 1px; stroke: rgb(0, 0, 0); fill: rgb(255, 255, 255); fill-opacity: 1;"/></g><g class="composite-shape"><path class="real" d=" M388.53,125.36 C392.86,125.59 395.31,128.99 394,132.97 L386.9,154.55 C385.6,158.52 381.03,161.56 376.7,161.33 L350.76,159.95 C346.43,159.72 343.99,156.31 345.29,152.34 L352.39,130.76 C353.7,126.79 358.27,123.75 362.6,123.98 Z" style="stroke-width: 1px; stroke: rgb(0, 0, 0); fill: rgb(255, 255, 255); fill-opacity: 1;"/></g><g class="composite-shape"><path class="real" d=" M381.47,144.27 C385.8,144.5 388.24,147.91 386.94,151.88 L379.84,173.47 C378.53,177.44 373.96,180.47 369.64,180.24 L343.7,178.87 C339.37,178.64 336.92,175.23 338.23,171.26 L345.33,149.67 C346.63,145.7 351.2,142.67 355.53,142.9 Z" style="stroke-width: 1px; stroke: rgb(0, 0, 0); fill: rgb(255, 255, 255); fill-opacity: 1;"/></g><g class="composite-shape"><path class="real" d=" M376.37,159.41 C380.69,159.64 383.14,163.04 381.83,167.02 L374.73,188.6 C373.43,192.57 368.86,195.61 364.53,195.38 L338.59,194 C334.27,193.77 331.82,190.36 333.12,186.39 L340.22,164.81 C341.53,160.83 346.1,157.8 350.43,158.03 Z" style="stroke-width: 1px; stroke: rgb(0, 0, 0); fill: rgb(255, 255, 255); fill-opacity: 1;"/></g><g class="composite-shape"><path class="real" d=" M371.14,175.3 C375.47,175.53 377.92,178.93 376.61,182.91 L369.51,204.49 C368.21,208.46 363.64,211.5 359.31,211.27 L333.37,209.89 C329.04,209.66 326.6,206.25 327.9,202.28 L335,180.7 C336.31,176.72 340.88,173.69 345.21,173.92 Z" style="stroke-width: 1px; stroke: rgb(0, 0, 0); fill: rgb(255, 255, 255); fill-opacity: 1;"/></g><g class="composite-shape"><path class="real" d=" M366.04,190.43 C370.37,190.66 372.82,194.07 371.51,198.04 L364.41,219.62 C363.1,223.6 358.54,226.63 354.21,226.4 L328.27,225.02 C323.94,224.79 321.49,221.39 322.8,217.41 L329.9,195.83 C331.21,191.86 335.77,188.82 340.1,189.05 Z" style="stroke-width: 1px; stroke: rgb(0, 0, 0); fill: rgb(255, 255, 255); fill-opacity: 1;"/></g><g class="composite-shape"><path class="real" d=" M359.09,208.59 C363.42,208.82 365.87,212.23 364.56,216.2 L357.46,237.78 C356.16,241.75 351.59,244.79 347.26,244.56 L321.32,243.18 C316.99,242.95 314.54,239.55 315.85,235.57 L322.95,213.99 C324.26,210.02 328.83,206.98 333.15,207.21 Z" style="stroke-width: 1px; stroke: rgb(0, 0, 0); fill: rgb(255, 255, 255); fill-opacity: 1;"/></g><g class="composite-shape"><path class="real" d=" M353.99,223.72 C358.32,223.95 360.77,227.36 359.46,231.33 L352.36,252.91 C351.05,256.89 346.48,259.92 342.16,259.69 L316.22,258.32 C311.89,258.09 309.44,254.68 310.75,250.71 L317.85,229.12 C319.16,225.15 323.72,222.12 328.05,222.35 Z" style="stroke-width: 1px; stroke: rgb(0, 0, 0); fill: rgb(255, 255, 255); fill-opacity: 1;"/></g><g class="composite-shape"><path class="real" d=" M348.77,239.61 C353.1,239.84 355.54,243.25 354.24,247.22 L347.14,268.8 C345.83,272.78 341.26,275.81 336.94,275.58 L311,274.2 C306.67,273.98 304.22,270.57 305.53,266.59 L312.63,245.01 C313.93,241.04 318.5,238 322.83,238.23 Z" style="stroke-width: 1px; stroke: rgb(0, 0, 0); fill: rgb(255, 255, 255); fill-opacity: 1;"/></g><g/></g><g/><g/><g/></svg>
        <svg xmlns="http://www.w3.org/2000/svg" xmlns:xlink="http://www.w3.org/1999/xlink" width="660" height="300" style="width:660px;height:300px;font-family:Asana-Math, Asana;background:transparent;"><g><g><g><text x="233.76785278320312" y="35.92857360839844" style="white-space:pre;stroke:none;fill:rgb(0,0,0);fill-opacity:1;font-size:12px;font-family:Arial, Helvetica, sans-serif;font-weight:normal;font-style:normal;dominant-baseline:text-before-edge;text-decoration:none;">A</text></g></g></g><g><g><g><text x="226.70535278320312" y="54.85713195800781" style="white-space:pre;stroke:none;fill:rgb(0,0,0);fill-opacity:1;font-size:12px;font-family:Arial, Helvetica, sans-serif;font-weight:normal;font-style:normal;dominant-baseline:text-before-edge;text-decoration:none;">2</text></g></g></g><g><g><g><text x="221.60714721679688" y="69.98213195800781" style="white-space:pre;stroke:none;fill:rgb(0,0,0);fill-opacity:1;font-size:12px;font-family:Arial, Helvetica, sans-serif;font-weight:normal;font-style:normal;dominant-baseline:text-before-edge;text-decoration:none;">3</text></g></g></g><g><g><g><text x="216.38394165039062" y="85.86607360839844" style="white-space:pre;stroke:none;fill:rgb(0,0,0);fill-opacity:1;font-size:12px;font-family:Arial, Helvetica, sans-serif;font-weight:normal;font-style:normal;dominant-baseline:text-before-edge;text-decoration:none;">4</text></g></g></g><g><g><g><text x="211.26785278320312" y="101.00892639160156" style="white-space:pre;stroke:none;fill:rgb(0,0,0);fill-opacity:1;font-size:12px;font-family:Arial, Helvetica, sans-serif;font-weight:normal;font-style:normal;dominant-baseline:text-before-edge;text-decoration:none;">5</text></g></g></g><g><g><g><text x="205.82144165039062" y="117.90177917480469" style="white-space:pre;stroke:none;fill:rgb(0,0,0);fill-opacity:1;font-size:12px;font-family:Arial, Helvetica, sans-serif;font-weight:normal;font-style:normal;dominant-baseline:text-before-edge;text-decoration:none;">6</text></g></g></g><g><g><g><text x="197.61605834960938" y="135.80357360839844" style="white-space:pre;stroke:none;fill:rgb(0,0,0);fill-opacity:1;font-size:12px;font-family:Arial, Helvetica, sans-serif;font-weight:normal;font-style:normal;dominant-baseline:text-before-edge;text-decoration:none;">7</text></g></g></g><g><g><g><text x="192.51785278320312" y="150.94642639160156" style="white-space:pre;stroke:none;fill:rgb(0,0,0);fill-opacity:1;font-size:12px;font-family:Arial, Helvetica, sans-serif;font-weight:normal;font-style:normal;dominant-baseline:text-before-edge;text-decoration:none;">8</text></g></g></g><g><g><g><text x="187.29464721679688" y="166.8392791748047" style="white-space:pre;stroke:none;fill:rgb(0,0,0);fill-opacity:1;font-size:12px;font-family:Arial, Helvetica, sans-serif;font-weight:normal;font-style:normal;dominant-baseline:text-before-edge;text-decoration:none;">9</text></g></g></g><g><g><g><text x="181.15182495117188" y="184.5267791748047" style="white-space:pre;stroke:none;fill:rgb(0,0,0);fill-opacity:1;font-size:12px;font-family:Arial, Helvetica, sans-serif;font-weight:normal;font-style:normal;dominant-baseline:text-before-edge;text-decoration:none;">10</text></g></g></g><g><g><g><text x="170.15182495117188" y="215.25892639160156" style="white-space:pre;stroke:none;fill:rgb(0,0,0);fill-opacity:1;font-size:12px;font-family:Arial, Helvetica, sans-serif;font-weight:normal;font-style:normal;dominant-baseline:text-before-edge;text-decoration:none;">Q</text></g></g></g><g><g><g><text x="164.91964721679688" y="231.1517791748047" style="white-space:pre;stroke:none;fill:rgb(0,0,0);fill-opacity:1;font-size:12px;font-family:Arial, Helvetica, sans-serif;font-weight:normal;font-style:normal;dominant-baseline:text-before-edge;text-decoration:none;">K</text></g></g></g><g><g><g><text x="176.74105834960938" y="198.86607360839844" style="white-space:pre;stroke:none;fill:rgb(0,0,0);fill-opacity:1;font-size:12px;font-family:Arial, Helvetica, sans-serif;font-weight:normal;font-style:normal;dominant-baseline:text-before-edge;text-decoration:none;">J</text></g></g></g><g><g><g><text x="292.5535583496094" y="40.80357360839844" style="white-space:pre;stroke:none;fill:rgb(0,0,0);fill-opacity:1;font-size:12px;font-family:Arial, Helvetica, sans-serif;font-weight:normal;font-style:normal;dominant-baseline:text-before-edge;text-decoration:none;">A</text></g></g></g><g><g><g><text x="285.4910583496094" y="59.72320556640625" style="white-space:pre;stroke:none;fill:rgb(0,0,0);fill-opacity:1;font-size:12px;font-family:Arial, Helvetica, sans-serif;font-weight:normal;font-style:normal;dominant-baseline:text-before-edge;text-decoration:none;">2</text></g></g></g><g><g><g><text x="280.3928527832031" y="74.85713195800781" style="white-space:pre;stroke:none;fill:rgb(0,0,0);fill-opacity:1;font-size:12px;font-family:Arial, Helvetica, sans-serif;font-weight:normal;font-style:normal;dominant-baseline:text-before-edge;text-decoration:none;">3</text></g></g></g><g><g><g><text x="275.1696472167969" y="90.74107360839844" style="white-space:pre;stroke:none;fill:rgb(0,0,0);fill-opacity:1;font-size:12px;font-family:Arial, Helvetica, sans-serif;font-weight:normal;font-style:normal;dominant-baseline:text-before-edge;text-decoration:none;">4</text></g></g></g><g><g><g><text x="270.0625305175781" y="105.88392639160156" style="white-space:pre;stroke:none;fill:rgb(0,0,0);fill-opacity:1;font-size:12px;font-family:Arial, Helvetica, sans-serif;font-weight:normal;font-style:normal;dominant-baseline:text-before-edge;text-decoration:none;">5</text></g></g></g><g><g><g><text x="264.6071472167969" y="122.77677917480469" style="white-space:pre;stroke:none;fill:rgb(0,0,0);fill-opacity:1;font-size:12px;font-family:Arial, Helvetica, sans-serif;font-weight:normal;font-style:normal;dominant-baseline:text-before-edge;text-decoration:none;">6</text></g></g></g><g><g><g><text x="256.3928527832031" y="140.68748474121094" style="white-space:pre;stroke:none;fill:rgb(0,0,0);fill-opacity:1;font-size:12px;font-family:Arial, Helvetica, sans-serif;font-weight:normal;font-style:normal;dominant-baseline:text-before-edge;text-decoration:none;">7</text></g></g></g><g><g><g><text x="251.30355834960938" y="155.82142639160156" style="white-space:pre;stroke:none;fill:rgb(0,0,0);fill-opacity:1;font-size:12px;font-family:Arial, Helvetica, sans-serif;font-weight:normal;font-style:normal;dominant-baseline:text-before-edge;text-decoration:none;">8</text></g></g></g><g><g><g><text x="246.08035278320312" y="171.7142791748047" style="white-space:pre;stroke:none;fill:rgb(0,0,0);fill-opacity:1;font-size:12px;font-family:Arial, Helvetica, sans-serif;font-weight:normal;font-style:normal;dominant-baseline:text-before-edge;text-decoration:none;">9</text></g></g></g><g><g><g><text x="239.93753051757812" y="189.4017791748047" style="white-space:pre;stroke:none;fill:rgb(0,0,0);fill-opacity:1;font-size:12px;font-family:Arial, Helvetica, sans-serif;font-weight:normal;font-style:normal;dominant-baseline:text-before-edge;text-decoration:none;">10</text></g></g></g><g><g><g><text x="228.93753051757812" y="220.13392639160156" style="white-space:pre;stroke:none;fill:rgb(0,0,0);fill-opacity:1;font-size:12px;font-family:Arial, Helvetica, sans-serif;font-weight:normal;font-style:normal;dominant-baseline:text-before-edge;text-decoration:none;">Q</text></g></g></g><g><g><g><text x="223.70535278320312" y="236.0267791748047" style="white-space:pre;stroke:none;fill:rgb(0,0,0);fill-opacity:1;font-size:12px;font-family:Arial, Helvetica, sans-serif;font-weight:normal;font-style:normal;dominant-baseline:text-before-edge;text-decoration:none;">K</text></g></g></g><g><g><g><text x="235.51785278320312" y="203.74107360839844" style="white-space:pre;stroke:none;fill:rgb(0,0,0);fill-opacity:1;font-size:12px;font-family:Arial, Helvetica, sans-serif;font-weight:normal;font-style:normal;dominant-baseline:text-before-edge;text-decoration:none;">J</text></g></g></g><g><g><g><text x="349.5089416503906" y="43.54463195800781" style="white-space:pre;stroke:none;fill:rgb(0,0,0);fill-opacity:1;font-size:12px;font-family:Arial, Helvetica, sans-serif;font-weight:normal;font-style:normal;dominant-baseline:text-before-edge;text-decoration:none;">A</text></g></g></g><g><g><g><text x="342.4464416503906" y="62.46427917480469" style="white-space:pre;stroke:none;fill:rgb(0,0,0);fill-opacity:1;font-size:12px;font-family:Arial, Helvetica, sans-serif;font-weight:normal;font-style:normal;dominant-baseline:text-before-edge;text-decoration:none;">2</text></g></g></g><g><g><g><text x="337.3393249511719" y="77.58927917480469" style="white-space:pre;stroke:none;fill:rgb(0,0,0);fill-opacity:1;font-size:12px;font-family:Arial, Helvetica, sans-serif;font-weight:normal;font-style:normal;dominant-baseline:text-before-edge;text-decoration:none;">3</text></g></g></g><g><g><g><text x="332.1250305175781" y="93.48213195800781" style="white-space:pre;stroke:none;fill:rgb(0,0,0);fill-opacity:1;font-size:12px;font-family:Arial, Helvetica, sans-serif;font-weight:normal;font-style:normal;dominant-baseline:text-before-edge;text-decoration:none;">4</text></g></g></g><g><g><g><text x="327.0178527832031" y="108.61607360839844" style="white-space:pre;stroke:none;fill:rgb(0,0,0);fill-opacity:1;font-size:12px;font-family:Arial, Helvetica, sans-serif;font-weight:normal;font-style:normal;dominant-baseline:text-before-edge;text-decoration:none;">5</text></g></g></g><g><g><g><text x="321.5625305175781" y="125.50892639160156" style="white-space:pre;stroke:none;fill:rgb(0,0,0);fill-opacity:1;font-size:12px;font-family:Arial, Helvetica, sans-serif;font-weight:normal;font-style:normal;dominant-baseline:text-before-edge;text-decoration:none;">6</text></g></g></g><g><g><g><text x="313.3571472167969" y="143.42857360839844" style="white-space:pre;stroke:none;fill:rgb(0,0,0);fill-opacity:1;font-size:12px;font-family:Arial, Helvetica, sans-serif;font-weight:normal;font-style:normal;dominant-baseline:text-before-edge;text-decoration:none;">7</text></g></g></g><g><g><g><text x="308.2589416503906" y="158.56251525878906" style="white-space:pre;stroke:none;fill:rgb(0,0,0);fill-opacity:1;font-size:12px;font-family:Arial, Helvetica, sans-serif;font-weight:normal;font-style:normal;dominant-baseline:text-before-edge;text-decoration:none;">8</text></g></g></g><g><g><g><text x="303.0357360839844" y="174.44642639160156" style="white-space:pre;stroke:none;fill:rgb(0,0,0);fill-opacity:1;font-size:12px;font-family:Arial, Helvetica, sans-serif;font-weight:normal;font-style:normal;dominant-baseline:text-before-edge;text-decoration:none;">9</text></g></g></g><g><g><g><text x="296.8839416503906" y="192.13392639160156" style="white-space:pre;stroke:none;fill:rgb(0,0,0);fill-opacity:1;font-size:12px;font-family:Arial, Helvetica, sans-serif;font-weight:normal;font-style:normal;dominant-baseline:text-before-edge;text-decoration:none;">10</text></g></g></g><g><g><g><text x="285.8928527832031" y="222.87501525878906" style="white-space:pre;stroke:none;fill:rgb(0,0,0);fill-opacity:1;font-size:12px;font-family:Arial, Helvetica, sans-serif;font-weight:normal;font-style:normal;dominant-baseline:text-before-edge;text-decoration:none;">Q</text></g></g></g><g><g><g><text x="280.6607360839844" y="238.75892639160156" style="white-space:pre;stroke:none;fill:rgb(0,0,0);fill-opacity:1;font-size:12px;font-family:Arial, Helvetica, sans-serif;font-weight:normal;font-style:normal;dominant-baseline:text-before-edge;text-decoration:none;">K</text></g></g></g><g><g><g><text x="292.4732360839844" y="206.4821319580078" style="white-space:pre;stroke:none;fill:rgb(0,0,0);fill-opacity:1;font-size:12px;font-family:Arial, Helvetica, sans-serif;font-weight:normal;font-style:normal;dominant-baseline:text-before-edge;text-decoration:none;">J</text></g></g></g><g><g><g><text x="407.5446472167969" y="46.28570556640625" style="white-space:pre;stroke:none;fill:rgb(0,0,0);fill-opacity:1;font-size:12px;font-family:Arial, Helvetica, sans-serif;font-weight:normal;font-style:normal;dominant-baseline:text-before-edge;text-decoration:none;">A</text></g></g></g><g><g><g><text x="400.4821472167969" y="65.1875" style="white-space:pre;stroke:none;fill:rgb(0,0,0);fill-opacity:1;font-size:12px;font-family:Arial, Helvetica, sans-serif;font-weight:normal;font-style:normal;dominant-baseline:text-before-edge;text-decoration:none;">2</text></g></g></g><g><g><g><text x="395.3750305175781" y="80.32142639160156" style="white-space:pre;stroke:none;fill:rgb(0,0,0);fill-opacity:1;font-size:12px;font-family:Arial, Helvetica, sans-serif;font-weight:normal;font-style:normal;dominant-baseline:text-before-edge;text-decoration:none;">3</text></g></g></g><g><g><g><text x="390.1607360839844" y="96.21427917480469" style="white-space:pre;stroke:none;fill:rgb(0,0,0);fill-opacity:1;font-size:12px;font-family:Arial, Helvetica, sans-serif;font-weight:normal;font-style:normal;dominant-baseline:text-before-edge;text-decoration:none;">4</text></g></g></g><g><g><g><text x="385.0536193847656" y="111.35713195800781" style="white-space:pre;stroke:none;fill:rgb(0,0,0);fill-opacity:1;font-size:12px;font-family:Arial, Helvetica, sans-serif;font-weight:normal;font-style:normal;dominant-baseline:text-before-edge;text-decoration:none;">5</text></g></g></g><g><g><g><text x="379.5982360839844" y="128.25892639160156" style="white-space:pre;stroke:none;fill:rgb(0,0,0);fill-opacity:1;font-size:12px;font-family:Arial, Helvetica, sans-serif;font-weight:normal;font-style:normal;dominant-baseline:text-before-edge;text-decoration:none;">6</text></g></g></g><g><g><g><text x="371.3928527832031" y="146.1517791748047" style="white-space:pre;stroke:none;fill:rgb(0,0,0);fill-opacity:1;font-size:12px;font-family:Arial, Helvetica, sans-serif;font-weight:normal;font-style:normal;dominant-baseline:text-before-edge;text-decoration:none;">7</text></g></g></g><g><g><g><text x="366.2946472167969" y="161.2946319580078" style="white-space:pre;stroke:none;fill:rgb(0,0,0);fill-opacity:1;font-size:12px;font-family:Arial, Helvetica, sans-serif;font-weight:normal;font-style:normal;dominant-baseline:text-before-edge;text-decoration:none;">8</text></g></g></g><g><g><g><text x="361.0714416503906" y="177.18751525878906" style="white-space:pre;stroke:none;fill:rgb(0,0,0);fill-opacity:1;font-size:12px;font-family:Arial, Helvetica, sans-serif;font-weight:normal;font-style:normal;dominant-baseline:text-before-edge;text-decoration:none;">9</text></g></g></g><g><g><g><text x="351.1428527832031" y="191.32142639160156" style="white-space:pre;stroke:none;fill:rgb(0,0,0);fill-opacity:1;font-size:12px;font-family:Arial, Helvetica, sans-serif;font-weight:normal;font-style:normal;dominant-baseline:text-before-edge;text-decoration:none;">10</text></g></g></g><g><g><g><text x="343.9286193847656" y="225.6071319580078" style="white-space:pre;stroke:none;fill:rgb(0,0,0);fill-opacity:1;font-size:12px;font-family:Arial, Helvetica, sans-serif;font-weight:normal;font-style:normal;dominant-baseline:text-before-edge;text-decoration:none;">Q</text></g></g></g><g><g><g><text x="338.6964416503906" y="241.50001525878906" style="white-space:pre;stroke:none;fill:rgb(0,0,0);fill-opacity:1;font-size:12px;font-family:Arial, Helvetica, sans-serif;font-weight:normal;font-style:normal;dominant-baseline:text-before-edge;text-decoration:none;">K</text></g></g></g><g><g><g><text x="350.5089416503906" y="209.2142791748047" style="white-space:pre;stroke:none;fill:rgb(0,0,0);fill-opacity:1;font-size:12px;font-family:Arial, Helvetica, sans-serif;font-weight:normal;font-style:normal;dominant-baseline:text-before-edge;text-decoration:none;">J</text></g></g></g><g transform="matrix(1,0,-0.4156456340830171,1,9.500471069911015,0)"><g><g><text x="227.86605834960938" y="14.28570556640625" style="white-space:pre;stroke:none;fill:rgb(0,0,0);fill-opacity:1;font-size:15px;font-family:Arial, Helvetica, sans-serif;font-weight:normal;font-style:normal;dominant-baseline:text-before-edge;text-decoration:none;">❤️</text></g></g></g><g transform="matrix(1,0,-0.5064514475657477,1,14.108289635060487,0)"><g><g><text x="343.9286193847656" y="19.28570556640625" style="white-space:pre;stroke:none;fill:rgb(0,0,0);fill-opacity:1;font-size:15px;font-family:Arial, Helvetica, sans-serif;font-weight:normal;font-style:normal;dominant-baseline:text-before-edge;text-decoration:none;">⚔️</text></g></g></g><g transform="matrix(1,0,-0.597303029835862,1,15.444548957709344,0)"><g><g><text x="285.9910583496094" y="17.28570556640625" style="white-space:pre;stroke:none;fill:rgb(0,0,0);fill-opacity:1;font-size:15px;font-family:Arial, Helvetica, sans-serif;font-weight:normal;font-style:normal;dominant-baseline:text-before-edge;text-decoration:none;">💎</text></g></g></g><g transform="matrix(1,0,-0.4156456340830171,1,12.82563614257515,0)"><g><g><text x="400.8661193847656" y="22.28570556640625" style="white-space:pre;stroke:none;fill:rgb(0,0,0);fill-opacity:1;font-size:15px;font-family:Arial, Helvetica, sans-serif;font-weight:normal;font-style:normal;dominant-baseline:text-before-edge;text-decoration:none;">♧</text></g></g></g></svg>
</svg>
